{
	"asset":{
		"version":"2.0",
		"generator":"Maxon Cinema 4D 2024.4.0 (#200000219)"
	},
	"scenes":[{
		"nodes":[0]
	}],
	"nodes":[{
		"mesh":0,
		"name":"Cube"
	}],
	"meshes":[{
		"name":"Cube",
		"primitives":[{
			"attributes":{
				"POSITION":1,
				"NORMAL":2,
				"TEXCOORD_0":3
			},
			"indices":0,
			"material":0
		}]
	}],
	"accessors":[{
		"bufferView":0,
		"type":"SCALAR",
		"componentType":5123,
		"count":36,
		"byteOffset":0,
		"min":[0],
		"max":[35]
	},
	{
		"bufferView":1,
		"type":"VEC3",
		"componentType":5126,
		"count":36,
		"byteOffset":0,
		"min":[-0.375,
		-0.375,
		-0.05000000074505806],
		"max":[0.375,
		0.375,
		0.05000000074505806]
	},
	{
		"bufferView":1,
		"type":"VEC3",
		"componentType":5126,
		"count":36,
		"byteOffset":12,
		"min":[-1.0,
		-1.0,
		-1.0],
		"max":[1.0,
		1.0,
		1.0]
	},
	{
		"bufferView":1,
		"type":"VEC2",
		"componentType":5126,
		"count":36,
		"byteOffset":24,
		"min":[0.0,
		0.0],
		"max":[1.0,
		1.0]
	}],
	"bufferViews":[{
		"buffer":0,
		"byteOffset":0,
		"byteLength":72,
		"target":34963
	},
	{
		"buffer":0,
		"byteOffset":72,
		"byteLength":1152,
		"target":34962,
		"byteStride":32
	}],
	"buffers":[{
		"uri":"data:application/octet-stream;base64,",
		"byteLength":1224
	}],
	"images":[{
		"uri":"data:image/png;base64,"
	}],
	"samplers":[{
		"magFilter":9729,
		"minFilter":9729,
		"wrapS":10497,
		"wrapT":10497
	}],
	"textures":[{
		"sampler":0,
		"source":0
	}],
	"materials":[{
		"emissiveFactor":[0.0,
		0.0,
		0.0],
		"pbrMetallicRoughness":{
			"baseColorTexture":{
				"index":0
			},
			"baseColorFactor":[1.0,
			1.0,
			1.0,
			1.0],
			"metallicFactor":0.0,
			"roughnessFactor":0.20000000298023225
		},
		"alphaMode":"OPAQUE",
		"doubleSided":false,
		"name":"Mat"
	}]
}